<svg xmlns="http://www.w3.org/2000/svg" xmlns:xlink="http://www.w3.org/1999/xlink" version="1.1" x="0px" y="0px" width="100px" height="100px" viewBox="0 0 100 100" enable-background="new 0 0 100 100" xml:space="preserve">
<g id="Captions">
</g>
<g id="Your_Icon">
	<path d="M70.165,27.166H29.827C17.216,27.166,7,37.396,7,49.999c0,12.607,10.216,22.835,22.827,22.835h0.079h40.259   C82.774,72.834,93,62.606,93,49.999C93,37.396,82.774,27.166,70.165,27.166z M40.56,53.437h-3.972h-2.583v2.586v3.968   c0.002,1.752-1.421,3.174-3.174,3.174c-1.752,0-3.175-1.421-3.177-3.174v-3.968v-2.586h-2.585h-3.964   c-1.755,0-3.176-1.422-3.178-3.174c0.002-1.757,1.423-3.176,3.176-3.176h3.966h2.585v-2.583v-3.971   c0.002-1.752,1.425-3.175,3.177-3.175c1.753,0,3.176,1.423,3.174,3.177v3.969v2.583h2.583h3.972c1.749,0,3.171,1.419,3.169,3.176   C43.73,52.015,42.309,53.437,40.56,53.437z M60.649,54.627c-2.411,0.001-4.364-1.955-4.364-4.364c0-2.411,1.953-4.367,4.36-4.367   c2.408,0.003,4.369,1.956,4.369,4.367C65.015,52.671,63.054,54.627,60.649,54.627z M69.978,63.956   c-2.407,0-4.363-1.954-4.363-4.366c0-2.405,1.956-4.363,4.363-4.363c2.411,0.003,4.369,1.958,4.367,4.364   C74.347,62.002,72.389,63.956,69.978,63.956z M69.978,45.296c-2.407,0.001-4.363-1.953-4.363-4.364c0-2.41,1.956-4.364,4.363-4.364   c2.411,0,4.369,1.954,4.367,4.364C74.347,43.342,72.389,45.296,69.978,45.296z M79.31,54.627c-2.411,0.001-4.363-1.955-4.365-4.364   c0.002-2.411,1.954-4.367,4.365-4.367c2.411,0.003,4.364,1.956,4.364,4.367C83.674,52.671,81.721,54.627,79.31,54.627z"/>
</g>
</svg>