<svg xmlns="http://www.w3.org/2000/svg" xmlns:xlink="http://www.w3.org/1999/xlink" version="1.1" id="Layer_1" x="0px" y="0px" width="90px" height="90px" viewBox="0 0 90 90" enable-background="new 0 0 90 90" xml:space="preserve">
<g>
	<g>
		<path d="M23.766,32.209c-3.333,0-6.424-1.938-7.876-4.937c-1.017-2.103-1.154-4.475-0.387-6.68    c0.767-2.205,2.348-3.977,4.45-4.992c1.199-0.582,2.479-0.876,3.803-0.876c3.332,0,6.421,1.939,7.869,4.94    c1.017,2.1,1.155,4.471,0.387,6.676c-0.768,2.206-2.348,3.979-4.45,4.995C26.365,31.916,25.087,32.209,23.766,32.209z     M23.756,15.725c-1.171,0-2.305,0.261-3.368,0.776c-1.862,0.899-3.262,2.469-3.941,4.42c-0.68,1.953-0.558,4.053,0.343,5.916    c1.286,2.656,4.024,4.372,6.976,4.372c1.169,0,2.3-0.26,3.361-0.774c1.861-0.899,3.261-2.47,3.94-4.423    c0.68-1.953,0.558-4.053-0.343-5.913C29.442,17.442,26.707,15.725,23.756,15.725z"/>
		<path d="M17.148,45.855c-0.066,0-0.133-0.013-0.197-0.04l-4.265-1.824c-0.205-0.088-0.327-0.301-0.299-0.522    c0.381-3.041,0.565-4.505,0.709-5.222c-1.556-1.12-2.924-2.486-4.073-4.069L3.668,34.79c-0.222,0.025-0.437-0.101-0.521-0.311    l-1.727-4.302c-0.083-0.208-0.019-0.446,0.16-0.583l4.191-3.217c-0.308-1.898-0.313-3.82-0.015-5.723l-4.189-3.38    c-0.174-0.141-0.234-0.38-0.146-0.585l1.822-4.264c0.088-0.206,0.302-0.326,0.523-0.3l5.216,0.667    c1.164-1.611,2.592-3.019,4.252-4.19l-0.778-5.166c-0.034-0.229,0.093-0.452,0.309-0.538l4.307-1.729    c0.205-0.083,0.442-0.02,0.58,0.155l3.251,4.145c1.888-0.297,3.796-0.298,5.682,0l3.372-4.157    c0.141-0.173,0.379-0.231,0.584-0.145l4.266,1.822c0.205,0.087,0.327,0.299,0.3,0.52l-0.629,5.217    c1.535,1.113,2.884,2.47,4.018,4.039l5.313-0.555c0.211-0.026,0.432,0.103,0.516,0.311l1.729,4.302    c0.083,0.206,0.02,0.442-0.155,0.58l-4.136,3.25c0.292,1.873,0.288,3.773-0.012,5.658l2.402,1.949    c0.214,0.174,0.247,0.489,0.073,0.703c-0.173,0.214-0.488,0.247-0.703,0.073l-2.556-2.074c-0.033-0.019-0.064-0.041-0.092-0.067    c-0.124-0.116-0.19-0.284-0.16-0.451c0.347-1.972,0.352-3.964,0.013-5.921c-0.032-0.186,0.043-0.374,0.194-0.487    c0.013-0.01,0.027-0.019,0.041-0.027l4.023-3.161l-1.448-3.604l-5.229,0.546c-0.179,0.02-0.358-0.062-0.461-0.21    c-1.16-1.66-2.568-3.075-4.188-4.208c-0.151-0.106-0.232-0.286-0.21-0.469l0.619-5.14l-3.574-1.527l-3.292,4.059    c-0.11,0.159-0.302,0.242-0.496,0.209c-1.969-0.344-3.966-0.343-5.938,0.001c-0.159,0.026-0.321-0.022-0.437-0.135    c-0.039-0.039-0.071-0.083-0.095-0.13l-3.14-4.003l-3.592,1.442l0.765,5.083c0.028,0.19-0.054,0.379-0.213,0.487    c-1.755,1.196-3.246,2.664-4.43,4.364c-0.106,0.153-0.285,0.235-0.474,0.21l-5.139-0.657l-1.525,3.569l4.122,3.325    c0.141,0.114,0.209,0.295,0.179,0.475c-0.343,1.982-0.337,3.99,0.018,5.968c0.033,0.184-0.04,0.371-0.188,0.485L2.49,30.157    l1.443,3.597l5.269-0.602c0.184-0.024,0.361,0.06,0.466,0.209c1.174,1.673,2.602,3.099,4.242,4.237    c0.164,0.114,0.245,0.314,0.205,0.51c-0.004,0.021-0.01,0.041-0.017,0.061c-0.073,0.365-0.43,3.127-0.673,5.05l3.571,1.527    c1.313-1.629,3.103-3.855,3.278-4.092c0.022-0.036,0.049-0.068,0.081-0.098c0.114-0.107,0.271-0.155,0.428-0.128    c1.986,0.346,3.99,0.347,5.956,0.001c0.183-0.033,0.371,0.041,0.484,0.19l1.836,2.413c0.167,0.22,0.125,0.533-0.095,0.701    c-0.219,0.168-0.534,0.124-0.701-0.095l-1.654-2.173c-1.89,0.298-3.81,0.297-5.715-0.005c-0.399,0.541-1.308,1.667-3.358,4.208    C17.44,45.79,17.295,45.855,17.148,45.855z"/>
	</g>
	<g>
		<path d="M55.993,68.444c-3.126,0-6.065-1.218-8.276-3.428c-2.21-2.21-3.428-5.149-3.428-8.274c0-3.126,1.217-6.064,3.428-8.274    c2.21-2.211,5.149-3.428,8.274-3.428c3.126,0,6.065,1.217,8.276,3.428c2.21,2.21,3.427,5.148,3.426,8.274    c0,3.127-1.218,6.065-3.428,8.274C62.057,67.227,59.119,68.444,55.993,68.444z M55.991,46.04c-2.858,0-5.546,1.113-7.567,3.135    s-3.135,4.708-3.135,7.567c0,2.858,1.113,5.546,3.135,7.567c2.022,2.021,4.71,3.135,7.569,3.135c2.858,0,5.545-1.113,7.565-3.135    c2.021-2.021,3.135-4.708,3.135-7.567c0.001-2.859-1.112-5.547-3.133-7.567C61.538,47.153,58.85,46.04,55.991,46.04z"/>
		<path d="M57.291,88.295c-0.011,0-0.022,0-0.034-0.001l-6.293-0.432c-0.223-0.016-0.408-0.177-0.455-0.395    c-0.923-4.32-1.332-6.237-1.443-7.124c-2.557-0.748-4.972-1.915-7.187-3.472l-6.692,3.226c-0.201,0.098-0.446,0.049-0.594-0.122    l-4.142-4.753c-0.147-0.169-0.164-0.415-0.041-0.603l3.998-6.095c-1.278-2.34-2.161-4.854-2.625-7.483l-6.987-2.498    c-0.211-0.075-0.346-0.282-0.331-0.505l0.436-6.289c0.016-0.224,0.177-0.409,0.396-0.455l7.1-1.501    c0.778-2.648,2.005-5.143,3.653-7.421l-3.358-6.381c-0.108-0.205-0.061-0.458,0.114-0.61l4.754-4.141    c0.168-0.146,0.411-0.164,0.599-0.044l6.121,3.924c2.326-1.261,4.823-2.131,7.432-2.589l2.506-6.943    c0.076-0.21,0.26-0.337,0.505-0.329l6.293,0.432c0.222,0.016,0.407,0.175,0.454,0.393l1.546,7.082    c2.519,0.749,4.904,1.91,7.1,3.455l6.667-3.132c0.203-0.094,0.442-0.044,0.59,0.124l4.141,4.754    c0.146,0.167,0.164,0.411,0.044,0.598l-3.912,6.108c1.251,2.322,2.114,4.819,2.568,7.431l6.959,2.495    c0.21,0.075,0.346,0.282,0.33,0.505l-0.434,6.291c-0.016,0.223-0.177,0.408-0.395,0.455l-7.104,1.521    c-0.753,2.525-1.917,4.916-3.467,7.113l3.191,6.685c0.097,0.203,0.047,0.445-0.123,0.593l-4.756,4.14    c-0.17,0.148-0.413,0.164-0.602,0.042l-6.098-3.981c-2.328,1.265-4.843,2.139-7.484,2.6c-0.234,0.765-0.873,2.55-2.467,7.002    C57.69,88.163,57.501,88.295,57.291,88.295z M51.408,86.891l5.539,0.38c0.971-2.711,2.322-6.51,2.43-6.861    c0.01-0.044,0.025-0.087,0.047-0.127c0.073-0.139,0.207-0.234,0.361-0.259c2.73-0.445,5.322-1.348,7.705-2.681    c0.163-0.09,0.361-0.084,0.518,0.018l6.033,3.939l4.184-3.643L75.07,71.05c-0.079-0.165-0.062-0.36,0.046-0.509    c1.628-2.252,2.829-4.719,3.573-7.333c0.05-0.178,0.195-0.313,0.376-0.353l7.028-1.505l0.382-5.538l-6.879-2.466    c-0.171-0.062-0.296-0.211-0.324-0.391c-0.438-2.706-1.331-5.285-2.653-7.667c-0.086-0.155-0.083-0.344,0.007-0.496    c0.017-0.029,0.037-0.056,0.059-0.081l3.825-5.971l-3.646-4.187l-6.59,3.096c-0.166,0.077-0.358,0.059-0.506-0.047    c-2.249-1.623-4.711-2.82-7.316-3.56c-0.177-0.05-0.312-0.194-0.352-0.375l-1.529-7.005l-5.543-0.38l-2.463,6.824    c-0.01,0.036-0.023,0.071-0.042,0.104c-0.073,0.137-0.205,0.233-0.358,0.258c-2.704,0.441-5.286,1.342-7.676,2.677    c-0.138,0.077-0.306,0.085-0.451,0.019c-0.058-0.026-0.109-0.063-0.153-0.108l-5.952-3.816l-4.173,3.635l3.319,6.307    c0.09,0.17,0.074,0.376-0.041,0.531c-1.73,2.332-2.997,4.902-3.764,7.642c-0.05,0.18-0.196,0.315-0.378,0.354l-7.025,1.485    l-0.383,5.534l6.906,2.47c0.171,0.062,0.295,0.21,0.325,0.39c0.448,2.72,1.359,5.314,2.708,7.713    c0.092,0.163,0.085,0.363-0.018,0.52l-3.956,6.03l3.642,4.18l6.615-3.188c0.167-0.079,0.361-0.062,0.51,0.045    c2.266,1.633,4.754,2.835,7.397,3.574c0.199,0.056,0.343,0.228,0.363,0.434c0.001,0.019,0.002,0.037,0.002,0.056    C50.043,80.42,50.853,84.281,51.408,86.891z"/>
	</g>
</g>
</svg>