<svg xmlns="http://www.w3.org/2000/svg" xmlns:xlink="http://www.w3.org/1999/xlink" version="1.1" id="Layer_1" x="0px" y="0px" width="90px" height="90px" viewBox="0 0 90 90" enable-background="new 0 0 90 90" xml:space="preserve">
<path d="M74.687,67.687c-6.527,0-10.061-7.541-11.759-11.164c-0.286-0.61-0.512-1.092-0.689-1.404  c-0.075-0.133-0.147-0.257-0.217-0.378c-0.062-0.107-0.123-0.213-0.183-0.317c-1.508,1.885-3.771,2.999-6.132,2.999  c-3.334,0-6.194-1.913-7.333-4.829l-0.144,0.34h-6.407l-0.146-0.342c-1.127,2.89-3.931,4.719-7.335,4.719  c-2.384,0-4.646-1.092-6.134-2.94C28.108,54.55,28,54.738,27.89,54.934l-0.088,0.156c-0.178,0.312-0.403,0.793-0.688,1.402  c-1.702,3.629-5.244,11.181-11.773,11.181c-2.186,0-3.957-0.67-5.263-1.989c-2.38-2.404-2.371-6.077-2.369-6.232l0.002-0.034  l3.138-22.602c0.004-0.05,0.653-6.069,6.159-9.855c-0.083-0.608-0.177-2.541,1.767-3.444v-0.432l0.179-0.063  c0.075-0.026,1.874-0.651,4.392-0.651c2.539,0,3.953,0.733,4.012,0.765l0.095,0.05l0.246,0.746c0.284,0.221,1.346,1.084,1.793,2.023  h31.071c0.437-0.925,1.436-1.776,1.726-2.011l0.186-0.85l0.094-0.06c0.046-0.029,1.156-0.72,3.706-0.72  c2.536,0,3.931,0.691,3.989,0.721l0.146,0.075v0.405c1.963,0.905,2.162,2.859,2.178,3.429c5.526,3.779,6.503,9.808,6.513,9.868  l3.193,22.622l0.001,0.017c0.002,0.156,0.023,3.839-2.354,6.248C78.638,67.018,76.87,67.687,74.687,67.687z M61.909,53.427  l0.202,0.381c0.113,0.214,0.24,0.433,0.374,0.665c0.07,0.121,0.144,0.247,0.219,0.381c0.188,0.331,0.418,0.821,0.709,1.441  c1.65,3.523,5.087,10.855,11.273,10.855c2.033,0,3.672-0.614,4.869-1.826c2.144-2.17,2.2-5.59,2.201-5.852L78.568,36.89  c-0.009-0.056-0.971-5.943-6.399-9.582l-0.128-0.085l0.009-0.153c0.006-0.092,0.101-2.265-2.012-3.131l-0.166-0.068v-0.422  c-0.408-0.167-1.655-0.599-3.6-0.599c-1.976,0-3.025,0.437-3.326,0.586l-0.177,0.81l-0.078,0.06  c-0.013,0.011-1.319,1.025-1.704,2.014l-0.066,0.171h-31.79l-0.066-0.171c-0.383-0.985-1.742-2-1.756-2.011l-0.068-0.051  l-0.229-0.693c-0.344-0.153-1.628-0.658-3.667-0.658c-1.979,0-3.526,0.41-4.035,0.564v0.4l-0.166,0.068  c-2.077,0.853-1.604,2.994-1.583,3.085l0.042,0.181l-0.153,0.104c-5.431,3.64-6.063,9.512-6.069,9.571L8.243,59.473  c0.001,0.261,0.069,3.67,2.217,5.837c1.202,1.212,2.844,1.827,4.879,1.827c6.188,0,9.633-7.343,11.288-10.872  c0.291-0.619,0.52-1.108,0.708-1.439l0.088-0.156c0.186-0.326,0.361-0.636,0.511-0.917l0.202-0.382l0.252,0.351  c1.375,1.912,3.601,3.053,5.954,3.053c3.418,0,6.185-1.966,7.048-5.009l0.207-0.729l0.58,1.361h5.698l0.577-1.363l0.208,0.731  c0.87,3.063,3.701,5.121,7.047,5.121c2.325,0,4.55-1.162,5.95-3.109L61.909,53.427z M55.877,53.2c-2.939,0-5.33-2.391-5.33-5.33  s2.391-5.33,5.33-5.33c2.938,0,5.33,2.391,5.33,5.33S58.815,53.2,55.877,53.2z M55.877,43.076c-2.644,0-4.795,2.15-4.795,4.794  s2.151,4.794,4.795,4.794s4.794-2.15,4.794-4.794S58.521,43.076,55.877,43.076z M34.258,53.2c-2.939,0-5.331-2.391-5.331-5.33  s2.391-5.33,5.331-5.33c2.939,0,5.33,2.391,5.33,5.33S37.197,53.2,34.258,53.2z M34.258,43.076c-2.644,0-4.794,2.15-4.794,4.794  s2.151,4.794,4.794,4.794s4.794-2.15,4.794-4.794S36.902,43.076,34.258,43.076z M67.52,44.803c-1.313,0-2.382-1.068-2.382-2.382  s1.068-2.382,2.382-2.382s2.383,1.068,2.383,2.382S68.833,44.803,67.52,44.803z M67.52,40.574c-1.018,0-1.846,0.829-1.846,1.847  s0.828,1.847,1.846,1.847c1.019,0,1.847-0.829,1.847-1.847S68.538,40.574,67.52,40.574z M22.597,43.105h-0.832  c-1.063,0-1.472-0.726-1.489-0.756l-0.021-0.038l-0.008-0.042c-0.112-0.614-0.065-1.312-0.03-1.82  c0.013-0.193,0.024-0.359,0.024-0.479c0-0.544,0.299-0.933,0.312-0.948l0.023-0.03l1.643-1.196l1.61,1.188l0.025,0.037  c0.012,0.017,0.283,0.417,0.283,0.953c0,0.115,0.009,0.272,0.02,0.454c0.029,0.515,0.07,1.22-0.044,1.843l-0.008,0.042l-0.021,0.038  C24.069,42.38,23.661,43.105,22.597,43.105z M20.767,42.122c0.074,0.105,0.365,0.447,0.999,0.447h0.832  c0.631,0,0.922-0.34,0.999-0.447c0.091-0.549,0.054-1.191,0.027-1.664c-0.011-0.19-0.021-0.354-0.021-0.485  c0-0.291-0.12-0.53-0.169-0.616l-1.215-0.896l-1.259,0.917c-0.048,0.074-0.181,0.303-0.181,0.593c0,0.139-0.012,0.313-0.026,0.516  C20.721,40.951,20.678,41.585,20.767,42.122z M72.165,39.979c-1.313,0-2.382-1.069-2.382-2.383s1.068-2.382,2.382-2.382  s2.382,1.068,2.382,2.382S73.479,39.979,72.165,39.979z M72.165,35.751c-1.018,0-1.846,0.828-1.846,1.846  c0,1.019,0.828,1.847,1.846,1.847c1.019,0,1.847-0.828,1.847-1.847C74.012,36.579,73.184,35.751,72.165,35.751z M63.053,39.979  c-1.313,0-2.382-1.069-2.382-2.383s1.068-2.382,2.382-2.382s2.383,1.068,2.383,2.382S64.366,39.979,63.053,39.979z M63.053,35.751  c-1.018,0-1.846,0.828-1.846,1.846c0,1.019,0.828,1.847,1.846,1.847c1.019,0,1.847-0.828,1.847-1.847  C64.899,36.579,64.071,35.751,63.053,35.751z M56.115,39.354H33.96V28.812h22.155V39.354z M34.496,38.817h21.083v-9.469H34.496  V38.817z M18.104,39.225c-0.382,0-0.704-0.024-0.982-0.075l-0.042-0.008l-0.037-0.02c-0.032-0.018-0.771-0.425-0.771-1.49v-0.831  c0-1.065,0.74-1.474,0.771-1.49l0.037-0.02l0.041-0.008c0.259-0.048,0.551-0.07,0.895-0.07c0.335,0,0.666,0.022,0.931,0.04  c0.193,0.014,0.36,0.025,0.48,0.025c0.543,0,0.937,0.298,0.953,0.311l0.03,0.023l1.197,1.644l-1.187,1.606l-0.033,0.023  c-0.016,0.012-0.399,0.288-0.938,0.288c-0.116,0-0.274,0.009-0.458,0.02C18.738,39.207,18.424,39.225,18.104,39.225z M17.266,38.63  c0.236,0.04,0.511,0.06,0.838,0.06c0.305,0,0.598-0.017,0.856-0.031c0.192-0.011,0.357-0.021,0.488-0.021  c0.292,0,0.517-0.119,0.594-0.165l0.9-1.22l-0.916-1.258c-0.076-0.049-0.309-0.182-0.6-0.182c-0.139,0-0.313-0.012-0.516-0.025  c-0.271-0.019-0.578-0.039-0.895-0.039c-0.288,0-0.534,0.018-0.749,0.053c-0.106,0.073-0.459,0.364-0.459,0.999v0.831  C16.808,38.27,17.16,38.558,17.266,38.63z M26.086,39.218c-0.325,0-0.629-0.021-0.897-0.041c-0.189-0.013-0.353-0.024-0.473-0.024  c-0.551,0-0.916-0.307-0.932-0.319l-0.043-0.047l-1.163-1.613l1.008-1.36l-1.42,1.023l-1.602-1.19l-0.022-0.029  c-0.012-0.015-0.292-0.382-0.292-0.926c0-0.116-0.009-0.271-0.02-0.451c-0.03-0.501-0.07-1.188,0.044-1.81l0.009-0.05l0.027-0.044  c0.017-0.027,0.428-0.665,1.48-0.665h0.832c1.053,0,1.464,0.638,1.481,0.665l0.027,0.044l0.009,0.05  c0.112,0.613,0.064,1.291,0.03,1.785c-0.013,0.19-0.024,0.354-0.024,0.475c0,0.337-0.114,0.607-0.206,0.77  c0.16-0.085,0.445-0.203,0.798-0.203c0.117,0,0.27-0.009,0.448-0.02c0.247-0.015,0.527-0.031,0.828-0.031  c0.362,0,0.673,0.024,0.953,0.076l0.052,0.009l0.045,0.029c0.026,0.017,0.643,0.429,0.643,1.479v0.832  c0,1.05-0.616,1.461-0.643,1.479l-0.045,0.028l-0.052,0.01C26.708,39.194,26.42,39.218,26.086,39.218z M24.152,38.44  c0.064,0.045,0.275,0.176,0.563,0.176c0.14,0,0.312,0.012,0.511,0.026c0.26,0.018,0.554,0.039,0.86,0.039  c0.273,0,0.509-0.017,0.72-0.051c0.097-0.087,0.364-0.381,0.364-1.001v-0.832c0-0.617-0.266-0.912-0.365-1.001  c-0.231-0.038-0.491-0.056-0.792-0.056c-0.285,0-0.557,0.016-0.796,0.03c-0.186,0.011-0.347,0.021-0.479,0.021  c-0.289,0-0.515,0.119-0.593,0.166l-0.903,1.22L24.152,38.44z M20.949,35.264l1.222,0.907l1.261-0.907  c0.046-0.068,0.178-0.286,0.178-0.574c0-0.14,0.012-0.312,0.026-0.512c0.032-0.449,0.074-1.059-0.012-1.591  c-0.083-0.099-0.377-0.38-1-0.38h-0.832c-0.62,0-0.914,0.279-1,0.381c-0.089,0.544-0.052,1.163-0.026,1.62  c0.011,0.188,0.021,0.351,0.021,0.482C20.786,34.978,20.904,35.192,20.949,35.264z M67.52,35.513c-1.313,0-2.382-1.069-2.382-2.383  s1.068-2.382,2.382-2.382s2.383,1.068,2.383,2.382S68.833,35.513,67.52,35.513z M67.52,31.284c-1.018,0-1.846,0.828-1.846,1.846  c0,1.019,0.828,1.847,1.846,1.847c1.019,0,1.847-0.828,1.847-1.847C69.366,32.112,68.538,31.284,67.52,31.284z"/>
</svg>