<svg xmlns="http://www.w3.org/2000/svg" xmlns:xlink="http://www.w3.org/1999/xlink" version="1.1" id="Layer_1" x="0px" y="0px" width="96px" height="96px" viewBox="0 0 96 96" enable-background="new 0 0 96 96" xml:space="preserve">
<path d="M32,0h44v24H32V0z"/>
<path d="M12,12h8v8h-8V12z"/>
<path d="M94,0H80v26c0,1.1-0.9,2-2,2H30c-1.104,0-2-0.9-2-2V0H2C0.896,0,0,0.9,0,2v76c0,0.484,0.176,0.952,0.496,1.316l14,16  C14.876,95.752,15.424,96,16,96h78c1.1,0,2-0.9,2-2V2C96,0.9,95.1,0,94,0z M24,22c0,1.1-0.896,2-2,2H10c-1.104,0-2-0.9-2-2V10  c0-1.1,0.896-2,2-2h12c1.104,0,2,0.9,2,2V22z M69.1,65.836l-18,11.836c-0.039,0.023-0.084,0.016-0.119,0.036  C50.684,77.876,50.363,78,50,78s-0.684-0.124-0.98-0.292c-0.035-0.021-0.084-0.013-0.119-0.036l-18-11.836  c-0.92-0.607-1.176-1.848-0.572-2.764c0.608-0.924,1.848-1.18,2.772-0.58L48,72.288V40c0-1.1,0.896-2,2-2c1.1,0,2,0.9,2,2v32.288  l14.9-9.796c0.928-0.604,2.168-0.352,2.771,0.576C70.275,63.988,70.02,65.229,69.1,65.836z"/>
</svg>