<svg xmlns="http://www.w3.org/2000/svg" xmlns:xlink="http://www.w3.org/1999/xlink" version="1.1" id="Icon" x="0px" y="0px" width="100px" height="100px" viewBox="0 0 100 100" enable-background="new 0 0 100 100" xml:space="preserve">
<g>
	<g>
		<path fill-rule="evenodd" clip-rule="evenodd" fill="#000000" d="M41.724,54.361h-19.5c-0.376,0-1.711,1.186-1.711,1.558    c0,0.381-0.455,0.609,1.711,0.609h19.5c0.378,0,1.923-0.229,1.923-0.609C43.646,55.547,42.102,54.361,41.724,54.361z     M67.719,67.36c-1.367,0-2.167,2.166,0,2.166h10.832c1.367-1.37-2.166-2.166-2.166-2.166S69.208,67.36,67.719,67.36z     M12.005,69.526c0-6.583,0-22.163,0-28.166c0,0,0-6.497,6.499-6.497c0,0,19.937,0,38.125,0l3.899-6.5c-21.589,0-46.357,0-46.357,0    c-8.666,0-8.666,8.666-8.666,8.666c0,8.735,0,28.239,0,36.829c0,0,0,8.662,8.666,8.662c0,0,11.707,0,25.995,0v-6.5    c-8.921,0-16.925,0-21.662,0C18.504,76.021,12.005,76.021,12.005,69.526z M39.557,67.36c0,0-16.763,0-19.496,0    s-1.367,2.166,0,2.166s16.763,0,19.496,0S39.557,67.36,39.557,67.36z M92.145,29.332l-5.818,8.364l3.666,3.665    c0,5.901,0,21.438,0,28.166c0,6.495-6.499,6.495-6.499,6.495c-5.122,0-14.051,0-23.831,0l-6.5,6.5c14.208,0,28.336,0,34.664,0    c0,0,8.666,0,8.666-8.662c0,0,0-28.369,0-36.829C96.492,37.03,96.476,31.585,92.145,29.332z M85.88,26.306l-8.276,15.076v2.742    c0,0,8.276-13.705,11.035-17.818c2.759-4.11-2.759-5.481-2.759-5.481s-1.38,0,0-1.371c1.379-1.371,2.759-2.742-1.38-6.853    c-2.759-2.742-6.896-1.371-8.276,0C59.662,35.9,52.766,55.09,48.625,64.682c-4.139,9.593-2.759,13.705-4.139,17.818    C63.801,71.537,83.121,27.677,84.5,24.935C85.88,22.195,85.88,26.306,85.88,26.306z M48.25,76.03c0,0,0-10.896,2.416-10.896    c0,0,4.832,3.267,6.034,3.267C56.7,68.401,56.7,70.585,48.25,76.03z M70.757,47.727c0,0-4.765,1.333-9.529-5.333l2.387-5.334    c0,0,7.143,5.334,9.524,5.334L70.757,47.727z M80.958,15.905c-2.763-1.46-4.142-4.375,1.384-1.46    C87.864,17.363,83.722,18.821,80.958,15.905z"/>
	</g>
</g>
</svg>