<svg xmlns="http://www.w3.org/2000/svg" xmlns:xlink="http://www.w3.org/1999/xlink" version="1.1" id="Capa_1" x="0px" y="0px" width="100px" height="100px" viewBox="0 0 100 100" enable-background="new 0 0 100 100" xml:space="preserve">
<g>
	<path d="M92.5,14.454h-85c-4.141,0-7.5,3.359-7.5,7.5v56.094c0,4.141,3.359,7.5,7.5,7.5h85c4.141,0,7.5-3.359,7.5-7.5V21.954   C100,17.813,96.641,14.454,92.5,14.454z M50.001,72.058c-12.183,0-22.06-9.875-22.06-22.057c0-12.185,9.877-22.06,22.06-22.06   c12.182,0,22.058,9.875,22.058,22.06C72.059,62.183,62.183,72.058,50.001,72.058z"/>
	<polygon points="41.578,36.827 41.578,49.998 41.578,63.172 52.983,56.585 64.39,49.998 52.983,43.412  "/>
</g>
</svg>